<svg xmlns="http://www.w3.org/2000/svg" viewBox="0 0 32 32">
  <rect width="32" height="32" rx="6" fill="#4A7C59"/>
  <path d="M16 6C11 6 7 10 7 15c0 3 1.5 5.7 3.8 7.3l-1.3 3.7 4.2-2.5c.8.3 1.7.5 2.6.5 5 0 9-4 9-9s-4-9-9-9z" fill="#FFF" opacity="0.95"/>
  <path d="M16 8c-4 0-7 3-7 7 0 2.5 1.3 4.7 3.3 5.9l-1 2.8 3.2-1.9c.5.1 1 .2 1.5.2 4 0 7-3 7-7s-3-7-7-7z" fill="#4A7C59"/>
  <path d="M16 10c-2.8 0-5 2.2-5 5 0 1.7.9 3.2 2.2 4.2l-.7 2 2.3-1.4c.4.1.8.2 1.2.2 2.8 0 5-2.2 5-5s-2.2-5-5-5z" fill="#FFF"/>
</svg>
